# xmcd
#
# Track frame offsets: 
#        150
#        14367
#        29522
#        42830
#        58080
#        70702
#        86342
#        101430
#        118762
#        132160
#        146672
#        160935
#
# Disc length: 2433 seconds
#
# Revision: 0
# Processed by: cddbd v1.5.2PL0 Copyright (c) Steve Scherf et al.
# Submitted via: ExactAudioCopy v0.99pb4
#
DISCID=9e097f0c
DTITLE=LeRoy Preston - Country Pedigree
DYEAR=1997
DGENRE=Classic Country
TTITLE0=Fool On a Stool
TTITLE1=Mr. Jones
TTITLE2=The Other Side of You
TTITLE3=Shakin' All the Wrong Hands
TTITLE4=I'm Not Breathless Anymore
TTITLE5=Tennessee Ridge
TTITLE6=I Heard the Highway
TTITLE7=Whiskey in the Glass
TTITLE8=When Your Memory Talks to Me
TTITLE9=City Water
TTITLE10=Red Hot Baby
TTITLE11=Vermont This Year
EXTD=
EXTT0=
EXTT1=
EXTT2=
EXTT3=
EXTT4=
EXTT5=
EXTT6=
EXTT7=
EXTT8=
EXTT9=
EXTT10=
EXTT11=
PLAYORDER=
